HIERARCHY
ROOT joint_Root
{
	OFFSET 0.0 0.0 0.0
	CHANNELS 6 Xposition Yposition Zposition Zrotation Xrotation Yrotation 
	JOINT Hips
	{
		OFFSET 4.5925 91.4895 -427.239
		CHANNELS 6 Xposition Yposition Zposition Zrotation Xrotation Yrotation 
		JOINT Spine
		{
			OFFSET 15.7357 0.0 0.0
			CHANNELS 6 Xposition Yposition Zposition Zrotation Xrotation Yrotation 
			JOINT Chest
			{
				OFFSET 8.98455 -0.406207 0.0
				CHANNELS 6 Xposition Yposition Zposition Zrotation Xrotation Yrotation 
				JOINT Neck
				{
					OFFSET 16.3773 0.0 0.0
					CHANNELS 6 Xposition Yposition Zposition Zrotation Xrotation Yrotation 
					JOINT Head
					{
						OFFSET 6.45672 0.0 0.0
						CHANNELS 6 Xposition Yposition Zposition Zrotation Xrotation Yrotation 
						End Site
						{
							OFFSET 0.0 0.0 0.0
						}
					}
				}
				JOINT Shoulder_L
				{
					OFFSET 12.9942 -0.242716 4.98039
					CHANNELS 6 Xposition Yposition Zposition Zrotation Xrotation Yrotation 
					JOINT UpperArm_L
					{
						OFFSET 5.34809 0.0 0.0
						CHANNELS 6 Xposition Yposition Zposition Zrotation Xrotation Yrotation 
						JOINT LowerArm_L
						{
							OFFSET 24.3286 1.87007e-05 0.0
							CHANNELS 6 Xposition Yposition Zposition Zrotation Xrotation Yrotation 
							JOINT Hand_L
							{
								OFFSET 22.2916 0.0 0.0
								CHANNELS 6 Xposition Yposition Zposition Zrotation Xrotation Yrotation 
								End Site
								{
									OFFSET 0.0 0.0 0.0
								}
							}
						}
					}
				}
				JOINT Shoulder_R
				{
					OFFSET 12.9945 -0.242716 -4.98039
					CHANNELS 6 Xposition Yposition Zposition Zrotation Xrotation Yrotation 
					JOINT UpperArm_R
					{
						OFFSET -5.34813 0.0 0.0
						CHANNELS 6 Xposition Yposition Zposition Zrotation Xrotation Yrotation 
						JOINT LowerArm_R
						{
							OFFSET -24.3289 0.000322201 0.0
							CHANNELS 6 Xposition Yposition Zposition Zrotation Xrotation Yrotation 
							JOINT Hand_R
							{
								OFFSET -22.2915 -0.000108084 0.0
								CHANNELS 6 Xposition Yposition Zposition Zrotation Xrotation Yrotation 
								End Site
								{
									OFFSET 0.0 0.0 0.0
								}
							}
						}
					}
				}
			}
		}
		JOINT UpperLeg_L
		{
			OFFSET -2.19248 -6.46944 0.0
			CHANNELS 6 Xposition Yposition Zposition Zrotation Xrotation Yrotation 
			JOINT LowerLeg_L
			{
				OFFSET 39.0811 0.0 -1.23785e-05
				CHANNELS 6 Xposition Yposition Zposition Zrotation Xrotation Yrotation 
				JOINT Foot_L
				{
					OFFSET 40.9854 0.0 -1.26872e-05
					CHANNELS 6 Xposition Yposition Zposition Zrotation Xrotation Yrotation 
					JOINT Toes_L
					{
						OFFSET 11.7543 0.0 0.0
						CHANNELS 6 Xposition Yposition Zposition Zrotation Xrotation Yrotation 
						End Site
						{
							OFFSET 0.0 0.0 0.0
						}
					}
				}
			}
		}
		JOINT UpperLeg_R
		{
			OFFSET -2.19251 6.46944 0.0
			CHANNELS 6 Xposition Yposition Zposition Zrotation Xrotation Yrotation 
			JOINT LowerLeg_R
			{
				OFFSET -39.0811 -0.00228153 -0.0401928
				CHANNELS 6 Xposition Yposition Zposition Zrotation Xrotation Yrotation 
				JOINT Foot_R
				{
					OFFSET -40.9854 0.0 0.0
					CHANNELS 6 Xposition Yposition Zposition Zrotation Xrotation Yrotation 
					JOINT Toes_R
					{
						OFFSET -11.7543 0.0 0.0
						CHANNELS 6 Xposition Yposition Zposition Zrotation Xrotation Yrotation 
						End Site
						{
							OFFSET 0.0 0.0 0.0
						}
					}
				}
			}
		}
	}
}
MOTION
Frames:	8
Frame Time:	0.0333333
0.000000 0.000000 0.000000 0.000000 0.000000 -0.000000 -142.477000 89.856800 178.067000 158.142000 87.568400 -67.970600 15.735700 0.000005 -0.000001 89.581100 81.282500 -89.341400 8.984550 -0.406207 -0.000000 9.668840 -0.122733 0.489390 16.377300 -0.000001 -0.000001 3.319320 -3.346290 1.305960 6.456720 -0.000001 -0.000000 -0.346776 -2.829210 0.393324 12.994200 -0.242716 4.980390 -90.791400 2.616780 -73.166800 5.348090 -0.000007 -0.000001 -65.293700 33.584200 -16.026500 24.328600 0.000019 0.000005 9.837020 17.762200 -29.613300 22.291600 -0.000001 0.000005 13.904700 5.269400 0.914218 12.994500 -0.242716 -4.980390 88.603900 8.678180 -80.824600 -5.348130 -0.000001 -0.000004 -59.146800 25.815200 -16.341700 -24.328900 0.000322 -0.000009 -0.215875 -0.485429 -23.857200 -22.291500 -0.000108 -0.000004 16.939300 5.416110 -3.468330 -2.192480 -6.469440 -0.000000 178.630000 -7.144110 -20.075000 39.081100 -0.000007 -0.000012 0.018409 -0.016713 47.760100 40.985400 -0.000006 -0.000013 0.761013 -4.977730 -69.061600 11.754300 -0.000000 0.000003 -0.001329 -0.019974 -17.389000 -2.192510 6.469440 -0.000001 177.721000 19.025500 169.270000 -39.081100 -0.002282 -0.040193 0.030677 -0.037765 35.951100 -40.985400 0.000008 0.000006 7.915100 3.923710 -75.892700 -11.754300 -0.000006 -0.000006 -0.002540 -0.035280 -18.007800
0.000000 0.000000 0.000000 0.000000 0.000000 -0.000000 -141.076000 89.880200 177.857000 157.726000 87.239600 -67.869700 15.735700 0.000005 -0.000001 90.808400 81.342200 -90.723300 8.984550 -0.406207 -0.000000 9.547810 0.244217 0.149673 16.377300 -0.000001 -0.000001 2.996830 -3.422950 1.397940 6.456720 -0.000001 -0.000000 -0.620578 -2.975730 0.334204 12.994200 -0.242716 4.980390 -90.793000 2.618500 -73.144600 5.348090 -0.000007 -0.000001 -66.827000 33.759900 -14.414100 24.328600 0.000019 0.000005 9.299540 18.665600 -27.096300 22.291600 -0.000001 0.000005 13.474900 5.272290 0.836441 12.994500 -0.242716 -4.980390 88.680800 8.339730 -80.978300 -5.348130 -0.000001 -0.000004 -58.108100 25.342400 -17.763600 -24.328900 0.000322 -0.000009 -0.456074 -0.936311 -25.918200 -22.291500 -0.000108 -0.000004 17.267500 5.423200 -3.706860 -2.192480 -6.469440 -0.000000 177.809000 -7.342950 -21.319400 39.081100 -0.000007 -0.000012 0.011650 -0.012890 42.102100 40.985400 -0.000006 -0.000013 0.158062 -3.365260 -68.337500 11.754300 -0.000000 0.000003 -0.001047 -0.016081 -17.230700 -2.192510 6.469440 -0.000001 176.958000 19.209900 170.135000 -39.081100 -0.002282 -0.040193 0.027756 -0.034160 35.611800 -40.985400 0.000008 0.000006 7.594300 4.303110 -76.144000 -11.754300 -0.000006 -0.000006 -0.002327 -0.032737 -17.904300
0.000000 0.000000 0.000000 0.000000 0.000000 -0.000000 -139.617000 89.806000 177.565000 154.635000 86.926400 -65.111300 15.735700 0.000005 -0.000001 91.956400 81.387100 -92.028600 8.984550 -0.406207 -0.000000 9.450410 0.583638 -0.192640 16.377300 -0.000001 -0.000001 2.646840 -3.414650 1.502240 6.456720 -0.000001 -0.000000 -0.971470 -3.065960 0.320712 12.994200 -0.242716 4.980390 -90.790900 2.601830 -73.085300 5.348090 -0.000007 -0.000001 -68.377600 33.527300 -12.770400 24.328600 0.000019 0.000005 8.781700 19.594900 -24.732500 22.291600 -0.000001 0.000005 13.113200 5.272040 0.843469 12.994500 -0.242716 -4.980390 88.754600 8.030230 -81.154500 -5.348130 -0.000001 -0.000004 -57.044700 25.050900 -19.071700 -24.328900 0.000322 -0.000009 -0.596412 -1.124640 -27.896700 -22.291500 -0.000108 -0.000004 17.690900 5.429210 -3.911860 -2.192480 -6.469440 -0.000000 177.100000 -7.264100 -22.464600 39.081100 -0.000007 -0.000012 0.005437 -0.007390 36.335200 40.985400 -0.000006 -0.000013 -0.047694 -1.257250 -67.531700 11.754300 -0.000000 0.000003 -0.000803 -0.012564 -17.087800 -2.192510 6.469440 -0.000001 176.241000 19.072200 170.833000 -39.081100 -0.002282 -0.040193 0.025325 -0.030790 35.589500 -40.985400 0.000008 0.000006 7.148170 4.478010 -76.494100 -11.754300 -0.000006 -0.000006 -0.002437 -0.034058 -17.958000
0.000000 0.000000 0.000000 0.000000 0.000000 -0.000000 -138.069000 89.648300 177.189000 153.973000 86.494500 -64.783000 15.735700 0.000005 -0.000001 92.619700 81.425800 -92.907500 8.984550 -0.406207 -0.000000 9.367190 0.775368 -0.638599 16.377300 -0.000001 -0.000001 2.376010 -3.428380 1.621570 6.456720 -0.000001 -0.000000 -1.349890 -3.092640 0.344046 12.994200 -0.242716 4.980390 -90.785800 2.607480 -73.223600 5.348090 -0.000007 -0.000001 -69.726100 33.129800 -11.277800 24.328600 0.000019 0.000005 8.142580 20.256600 -22.453400 22.291600 -0.000001 0.000005 12.552400 5.254780 1.306070 12.994500 -0.242716 -4.980390 88.817500 7.802150 -81.354200 -5.348130 -0.000001 -0.000004 -56.056900 24.667100 -20.227000 -24.328900 0.000322 -0.000009 -0.657599 -1.155680 -29.601600 -22.291500 -0.000108 -0.000004 17.979200 5.432570 -4.027500 -2.192480 -6.469440 -0.000000 176.133000 -6.627280 -25.703000 39.081100 -0.000007 -0.000012 0.060301 -0.088081 34.395200 40.985400 -0.000006 -0.000013 1.483470 0.638844 -63.380400 11.754300 -0.000000 0.000003 -0.001060 -0.016257 -17.237900 -2.192510 6.469440 -0.000001 175.290000 18.913600 171.449000 -39.081100 -0.002282 -0.040193 0.023236 -0.027578 35.878700 -40.985400 0.000008 0.000006 6.720440 4.606760 -77.024300 -11.754300 -0.000006 -0.000006 -0.252207 -0.327144 -18.250700
0.000000 0.000000 0.000000 0.000000 0.000000 -0.000000 -136.227000 89.342500 176.760000 152.115000 86.123400 -63.119200 15.735700 0.000005 -0.000001 93.048100 81.451600 -93.561500 8.984550 -0.406207 -0.000000 9.311650 0.897148 -1.098900 16.377300 -0.000001 -0.000001 2.239590 -3.400670 1.777840 6.456720 -0.000001 -0.000000 -1.584680 -3.075090 0.442800 12.994200 -0.242716 4.980390 -90.744500 2.494340 -73.375000 5.348090 -0.000007 -0.000001 -70.867300 32.921200 -10.192200 24.328600 0.000019 0.000005 7.413680 20.991400 -19.962800 22.291600 -0.000001 0.000005 12.128500 5.241920 1.645300 12.994500 -0.242716 -4.980390 88.850100 7.743920 -81.527400 -5.348130 -0.000001 -0.000004 -55.152300 24.396300 -21.109000 -24.328900 0.000322 -0.000009 -0.768505 -1.273720 -31.072400 -22.291500 -0.000108 -0.000004 18.218900 5.434870 -4.107060 -2.192480 -6.469440 -0.000000 175.365000 -6.699700 -27.315600 39.081100 -0.000007 -0.000012 0.004260 -0.006428 33.528400 40.985400 -0.000006 -0.000013 1.901050 0.019388 -59.208200 11.754300 -0.000000 0.000003 -0.000447 -0.007214 -16.870500 -2.192510 6.469440 -0.000001 174.333000 18.478000 172.160000 -39.081100 -0.002282 -0.040193 0.021727 -0.024801 36.632300 -40.985400 0.000008 0.000006 6.237690 4.497870 -77.668100 -11.754300 -0.000006 -0.000006 -0.562650 -0.688501 -18.886100
0.000000 0.000000 0.000000 0.000000 0.000000 -0.000000 -133.819000 88.845900 176.373000 139.818000 86.031700 -50.535500 15.735700 0.000005 -0.000001 94.179400 81.384000 -94.739300 8.984550 -0.406207 -0.000000 9.428060 1.240620 -1.221180 16.377300 -0.000001 -0.000001 2.279550 -3.319900 1.864510 6.456720 -0.000001 -0.000000 -1.590680 -3.012980 0.572302 12.994200 -0.242716 4.980390 -90.714900 2.400720 -73.413100 5.348090 -0.000007 -0.000001 -71.747600 33.003100 -9.358990 24.328600 0.000019 0.000005 6.771890 22.081000 -17.530600 22.291600 -0.000001 0.000005 11.725300 5.234740 1.832650 12.994500 -0.242716 -4.980390 88.875700 7.681000 -81.646900 -5.348130 -0.000001 -0.000004 -54.488900 24.388200 -21.775700 -24.328900 0.000322 -0.000009 -0.897998 -1.430000 -32.100900 -22.291500 -0.000108 -0.000004 18.394700 5.438140 -4.220820 -2.192480 -6.469440 -0.000000 175.590000 -8.034850 -27.529200 39.081100 -0.000007 -0.000012 -0.036801 0.049030 36.892600 40.985400 -0.000006 -0.000013 2.081000 -0.303264 -60.730800 11.754300 -0.000000 0.000003 -0.000028 -0.000336 -16.590700 -2.192510 6.469440 -0.000001 173.921000 17.075500 173.238000 -39.081100 -0.002282 -0.040193 0.016779 -0.017200 38.118000 -40.985400 0.000008 0.000006 5.622700 3.959440 -77.845000 -11.754300 -0.000006 -0.000006 -1.088840 -1.271820 -20.259600
0.000000 0.000000 0.000000 0.000000 0.000000 -0.000000 -131.164000 88.258300 175.974000 126.718000 85.627300 -36.895500 15.735700 0.000005 -0.000001 94.952000 81.338400 -95.631800 8.984550 -0.406207 -0.000000 9.504090 1.476470 -1.481240 16.377300 -0.000001 -0.000001 2.570900 -3.216650 1.942570 6.456720 -0.000001 -0.000000 -1.260040 -2.912330 0.894778 12.994200 -0.242716 4.980390 -90.692500 2.316970 -73.353900 5.348090 -0.000007 -0.000001 -72.300000 32.927900 -8.686270 24.328600 0.000019 0.000005 6.250950 23.345600 -15.451400 22.291600 -0.000001 0.000005 11.081400 5.223610 2.120020 12.994500 -0.242716 -4.980390 88.856700 7.821700 -81.657200 -5.348130 -0.000001 -0.000004 -54.101000 24.800500 -22.173700 -24.328900 0.000322 -0.000009 -0.980087 -1.527640 -32.659600 -22.291500 -0.000108 -0.000004 18.522600 5.440800 -4.313770 -2.192480 -6.469440 -0.000000 175.987000 -9.269980 -27.076600 39.081100 -0.000007 -0.000012 -0.131507 0.151329 40.991700 40.985400 -0.000006 -0.000013 2.258820 -0.147310 -64.789800 11.754300 -0.000000 0.000003 -0.000065 -0.000713 -16.605100 -2.192510 6.469440 -0.000001 173.434000 15.473300 173.810000 -39.081100 -0.002282 -0.040193 0.026973 -0.027006 41.268000 -40.985400 0.000008 0.000006 5.043780 3.435310 -77.904300 -11.754300 -0.000006 -0.000006 -0.013586 -0.128724 -21.823000
0.000000 0.000000 0.000000 0.000000 0.000000 -0.000000 -128.527000 87.777100 175.569000 118.241000 85.328500 -27.775400 15.735700 0.000005 -0.000001 94.469200 81.287300 -95.315800 8.984550 -0.406207 -0.000000 9.618790 1.336200 -1.804250 16.377300 -0.000001 -0.000001 2.778800 -3.124330 1.897600 6.456720 -0.000001 -0.000000 -0.809678 -2.890790 1.247690 12.994200 -0.242716 4.980390 -90.724900 2.424450 -73.347700 5.348090 -0.000007 -0.000001 -72.074700 32.601500 -8.493770 24.328600 0.000019 0.000005 5.788610 24.240700 -13.869700 22.291600 -0.000001 0.000005 10.266100 5.214940 2.342030 12.994500 -0.242716 -4.980390 88.816700 8.081800 -81.641800 -5.348130 -0.000001 -0.000004 -54.563100 25.041800 -22.001100 -24.328900 0.000322 -0.000009 -0.827726 -1.270600 -33.051700 -22.291500 -0.000108 -0.000004 18.664500 5.440950 -4.319130 -2.192480 -6.469440 -0.000000 176.464000 -9.351110 -25.904900 39.081100 -0.000007 -0.000012 -0.246248 0.255718 43.919800 40.985400 -0.000006 -0.000013 2.199180 -0.725999 -68.232200 11.754300 -0.000000 0.000003 -0.000215 -0.001968 -16.651600 -2.192510 6.469440 -0.000001 172.897000 14.354400 173.022000 -39.081100 -0.002282 -0.040193 0.054396 -0.048312 46.627200 -40.985400 0.000008 0.000006 4.666450 3.365460 -75.775900 -11.754300 -0.000006 -0.000006 -0.033992 -0.235208 -26.219400
